<?xml version="1.0" standalone="no"?>
<!DOCTYPE svg PUBLIC "-//W3C//DTD SVG 20010904//EN"
 "http://www.w3.org/TR/2001/REC-SVG-20010904/DTD/svg10.dtd">
<svg version="1.0" xmlns="http://www.w3.org/2000/svg"
 width="620.000000pt" height="620.000000pt" viewBox="0 0 620.000000 620.000000"
 preserveAspectRatio="xMidYMid meet">
<metadata>
Created by potrace 1.11, written by Peter Selinger 2001-2013
</metadata>
<g transform="translate(0.000000,620.000000) scale(0.100000,-0.100000)"
fill="#000000" stroke="none">
<path d="M1700 6100 l0 -100 -200 0 -200 0 0 -100 0 -100 -100 0 -100 0 0
-200 0 -200 -100 0 -100 0 0 -800 0 -800 -100 0 -100 0 0 -600 0 -600 100 0
100 0 0 -300 0 -300 100 0 100 0 0 -200 0 -200 100 0 100 0 0 -300 0 -300 100
0 100 0 0 -200 0 -200 100 0 100 0 0 -100 0 -100 100 0 100 0 0 -100 0 -100
100 0 100 0 0 -100 0 -100 1000 0 1000 0 0 100 0 100 100 0 100 0 0 100 0 100
100 0 100 0 0 100 0 100 100 0 100 0 0 200 0 200 100 0 100 0 0 300 0 300 100
0 100 0 0 200 0 200 100 0 100 0 0 300 0 300 100 0 100 0 0 600 0 600 -100 0
-100 0 0 800 0 800 -100 0 -100 0 0 200 0 200 -100 0 -100 0 0 100 0 100 -200
0 -200 0 0 100 0 100 -1400 0 -1400 0 0 -100z"/>
</g>
</svg>
