<svg width="573" height="427" viewBox="0 0 573 427" fill="none" xmlns="http://www.w3.org/2000/svg">
<rect x="1" y="1" width="571" height="425" fill="white"/>
<rect x="31" y="27" width="512" height="361" fill="#56CCF2" stroke="black" stroke-width="2"/>
<rect x="83.5" y="61.5" width="409" height="291" fill="#6FCF97" stroke="black" stroke-width="3"/>
<rect x="124" y="92" width="328" height="230" fill="#F2994A" stroke="#F2994A" stroke-width="4"/>
<path d="M237.601 414.12C236.457 414.12 235.561 413.844 234.913 413.292C234.273 412.732 233.933 411.924 233.893 410.868C233.885 410.652 233.881 410.3 233.881 409.812C233.881 409.316 233.885 408.956 233.893 408.732C233.933 407.692 234.281 406.892 234.937 406.332C235.593 405.764 236.481 405.48 237.601 405.48C238.305 405.48 238.937 405.6 239.497 405.84C240.057 406.072 240.497 406.408 240.817 406.848C241.145 407.28 241.313 407.788 241.321 408.372V408.396C241.321 408.46 241.293 408.516 241.237 408.564C241.189 408.604 241.133 408.624 241.069 408.624H239.449C239.345 408.624 239.265 408.604 239.209 408.564C239.153 408.516 239.105 408.432 239.065 408.312C238.953 407.904 238.777 407.62 238.537 407.46C238.297 407.292 237.981 407.208 237.589 407.208C236.645 407.208 236.157 407.736 236.125 408.792C236.117 409.008 236.113 409.34 236.113 409.788C236.113 410.236 236.117 410.576 236.125 410.808C236.157 411.864 236.645 412.392 237.589 412.392C237.981 412.392 238.301 412.308 238.549 412.14C238.797 411.964 238.969 411.68 239.065 411.288C239.097 411.168 239.141 411.088 239.197 411.048C239.253 411 239.337 410.976 239.449 410.976H241.069C241.141 410.976 241.201 411 241.249 411.048C241.305 411.096 241.329 411.156 241.321 411.228C241.313 411.812 241.145 412.324 240.817 412.764C240.497 413.196 240.057 413.532 239.497 413.772C238.937 414.004 238.305 414.12 237.601 414.12ZM246.615 414.12C245.855 414.12 245.203 414.008 244.659 413.784C244.115 413.56 243.703 413.268 243.423 412.908C243.151 412.54 243.007 412.14 242.991 411.708C242.991 411.644 243.015 411.588 243.063 411.54C243.119 411.484 243.183 411.456 243.255 411.456H244.767C244.863 411.456 244.939 411.476 244.995 411.516C245.059 411.548 245.123 411.6 245.187 411.672C245.291 411.88 245.459 412.052 245.691 412.188C245.923 412.324 246.231 412.392 246.615 412.392C247.071 412.392 247.419 412.32 247.659 412.176C247.899 412.032 248.019 411.836 248.019 411.588C248.019 411.412 247.955 411.268 247.827 411.156C247.707 411.044 247.515 410.944 247.251 410.856C246.987 410.768 246.595 410.668 246.075 410.556C245.115 410.356 244.395 410.064 243.915 409.68C243.443 409.288 243.207 408.732 243.207 408.012C243.207 407.524 243.343 407.088 243.615 406.704C243.887 406.32 244.275 406.02 244.779 405.804C245.283 405.588 245.871 405.48 246.543 405.48C247.239 405.48 247.843 405.6 248.355 405.84C248.867 406.08 249.255 406.384 249.519 406.752C249.791 407.112 249.935 407.468 249.951 407.82C249.951 407.892 249.927 407.952 249.879 408C249.831 408.048 249.771 408.072 249.699 408.072H248.115C248.019 408.072 247.939 408.056 247.875 408.024C247.819 407.992 247.767 407.94 247.719 407.868C247.671 407.684 247.539 407.528 247.323 407.4C247.115 407.272 246.855 407.208 246.543 407.208C246.183 407.208 245.907 407.272 245.715 407.4C245.523 407.528 245.427 407.716 245.427 407.964C245.427 408.132 245.479 408.272 245.583 408.384C245.695 408.496 245.871 408.6 246.111 408.696C246.359 408.784 246.711 408.876 247.167 408.972C247.911 409.108 248.503 409.28 248.943 409.488C249.391 409.688 249.719 409.952 249.927 410.28C250.135 410.6 250.239 411.004 250.239 411.492C250.239 412.028 250.083 412.496 249.771 412.896C249.467 413.288 249.039 413.592 248.487 413.808C247.943 414.016 247.319 414.12 246.615 414.12ZM255.472 414.12C254.712 414.12 254.06 414.008 253.516 413.784C252.972 413.56 252.56 413.268 252.28 412.908C252.008 412.54 251.864 412.14 251.848 411.708C251.848 411.644 251.872 411.588 251.92 411.54C251.976 411.484 252.04 411.456 252.112 411.456H253.624C253.72 411.456 253.796 411.476 253.852 411.516C253.916 411.548 253.98 411.6 254.044 411.672C254.148 411.88 254.316 412.052 254.548 412.188C254.78 412.324 255.088 412.392 255.472 412.392C255.928 412.392 256.276 412.32 256.516 412.176C256.756 412.032 256.876 411.836 256.876 411.588C256.876 411.412 256.812 411.268 256.684 411.156C256.564 411.044 256.372 410.944 256.108 410.856C255.844 410.768 255.452 410.668 254.932 410.556C253.972 410.356 253.252 410.064 252.772 409.68C252.3 409.288 252.064 408.732 252.064 408.012C252.064 407.524 252.2 407.088 252.472 406.704C252.744 406.32 253.132 406.02 253.636 405.804C254.14 405.588 254.728 405.48 255.4 405.48C256.096 405.48 256.7 405.6 257.212 405.84C257.724 406.08 258.112 406.384 258.376 406.752C258.648 407.112 258.792 407.468 258.808 407.82C258.808 407.892 258.784 407.952 258.736 408C258.688 408.048 258.628 408.072 258.556 408.072H256.972C256.876 408.072 256.796 408.056 256.732 408.024C256.676 407.992 256.624 407.94 256.576 407.868C256.528 407.684 256.396 407.528 256.18 407.4C255.972 407.272 255.712 407.208 255.4 407.208C255.04 407.208 254.764 407.272 254.572 407.4C254.38 407.528 254.284 407.716 254.284 407.964C254.284 408.132 254.336 408.272 254.44 408.384C254.552 408.496 254.728 408.6 254.968 408.696C255.216 408.784 255.568 408.876 256.024 408.972C256.768 409.108 257.36 409.28 257.8 409.488C258.248 409.688 258.576 409.952 258.784 410.28C258.992 410.6 259.096 411.004 259.096 411.492C259.096 412.028 258.94 412.496 258.628 412.896C258.324 413.288 257.896 413.592 257.344 413.808C256.8 414.016 256.176 414.12 255.472 414.12ZM264.952 414C264.872 414 264.8 413.972 264.736 413.916C264.68 413.852 264.652 413.78 264.652 413.7V405.9C264.652 405.812 264.68 405.74 264.736 405.684C264.8 405.628 264.872 405.6 264.952 405.6H268.612C269.62 405.6 270.368 405.808 270.856 406.224C271.352 406.632 271.6 407.216 271.6 407.976C271.6 408.376 271.496 408.716 271.288 408.996C271.088 409.268 270.86 409.468 270.604 409.596C270.932 409.748 271.208 409.992 271.432 410.328C271.656 410.664 271.768 411.04 271.768 411.456C271.768 412.256 271.504 412.88 270.976 413.328C270.448 413.776 269.696 414 268.72 414H264.952ZM268.372 408.936C268.692 408.936 268.936 408.856 269.104 408.696C269.272 408.528 269.356 408.308 269.356 408.036C269.356 407.772 269.272 407.56 269.104 407.4C268.936 407.24 268.692 407.16 268.372 407.16H266.812V408.936H268.372ZM268.48 412.44C268.808 412.44 269.064 412.344 269.248 412.152C269.432 411.96 269.524 411.728 269.524 411.456C269.524 411.168 269.432 410.932 269.248 410.748C269.064 410.556 268.808 410.46 268.48 410.46H266.812V412.44H268.48ZM277.433 414.12C276.305 414.12 275.417 413.844 274.769 413.292C274.121 412.74 273.777 411.928 273.737 410.856C273.729 410.624 273.725 410.28 273.725 409.824C273.725 409.36 273.729 409.012 273.737 408.78C273.777 407.724 274.125 406.912 274.781 406.344C275.445 405.768 276.329 405.48 277.433 405.48C278.537 405.48 279.421 405.768 280.085 406.344C280.749 406.912 281.097 407.724 281.129 408.78C281.145 409.244 281.153 409.592 281.153 409.824C281.153 410.048 281.145 410.392 281.129 410.856C281.089 411.928 280.745 412.74 280.097 413.292C279.449 413.844 278.561 414.12 277.433 414.12ZM277.433 412.392C277.873 412.392 278.221 412.26 278.477 411.996C278.741 411.732 278.881 411.328 278.897 410.784C278.913 410.32 278.921 409.992 278.921 409.8C278.921 409.592 278.913 409.264 278.897 408.816C278.881 408.272 278.741 407.868 278.477 407.604C278.213 407.34 277.865 407.208 277.433 407.208C277.001 407.208 276.653 407.34 276.389 407.604C276.133 407.868 275.993 408.272 275.969 408.816C275.961 409.04 275.957 409.368 275.957 409.8C275.957 410.224 275.961 410.552 275.969 410.784C275.993 411.328 276.133 411.732 276.389 411.996C276.645 412.26 276.993 412.392 277.433 412.392ZM282.625 414C282.553 414 282.489 413.976 282.433 413.928C282.385 413.872 282.361 413.812 282.361 413.748C282.361 413.692 282.377 413.644 282.409 413.604L285.025 409.716L282.601 405.996C282.577 405.948 282.565 405.9 282.565 405.852C282.565 405.788 282.589 405.732 282.637 405.684C282.685 405.628 282.745 405.6 282.817 405.6H284.557C284.653 405.6 284.733 405.624 284.797 405.672C284.861 405.72 284.921 405.78 284.977 405.852L286.405 408.024L287.857 405.852C287.961 405.684 288.101 405.6 288.277 405.6H289.933C289.997 405.6 290.053 405.628 290.101 405.684C290.157 405.732 290.185 405.788 290.185 405.852C290.185 405.908 290.169 405.956 290.137 405.996L287.701 409.704L290.341 413.604C290.365 413.636 290.377 413.684 290.377 413.748C290.377 413.812 290.353 413.872 290.305 413.928C290.257 413.976 290.197 414 290.125 414H288.337C288.169 414 288.029 413.92 287.917 413.76L286.333 411.456L284.761 413.76C284.673 413.92 284.537 414 284.353 414H282.625ZM291.906 411.264C291.818 411.264 291.746 411.236 291.69 411.18C291.634 411.124 291.606 411.052 291.606 410.964V409.836C291.606 409.748 291.634 409.676 291.69 409.62C291.746 409.564 291.818 409.536 291.906 409.536H295.662C295.75 409.536 295.822 409.564 295.878 409.62C295.942 409.676 295.974 409.748 295.974 409.836V410.964C295.974 411.052 295.942 411.124 295.878 411.18C295.822 411.236 295.75 411.264 295.662 411.264H291.906ZM298.645 414C298.565 414 298.493 413.972 298.429 413.916C298.373 413.852 298.345 413.78 298.345 413.7V405.9C298.345 405.812 298.373 405.74 298.429 405.684C298.493 405.628 298.565 405.6 298.645 405.6H299.941C300.133 405.6 300.273 405.688 300.361 405.864L302.473 409.644L304.585 405.864C304.673 405.688 304.813 405.6 305.005 405.6H306.289C306.377 405.6 306.449 405.628 306.505 405.684C306.569 405.74 306.601 405.812 306.601 405.9V413.7C306.601 413.788 306.569 413.86 306.505 413.916C306.449 413.972 306.377 414 306.289 414H304.861C304.773 414 304.697 413.972 304.633 413.916C304.577 413.86 304.549 413.788 304.549 413.7V409.2L303.205 411.708C303.101 411.892 302.961 411.984 302.785 411.984H302.161C302.057 411.984 301.973 411.96 301.909 411.912C301.845 411.864 301.789 411.796 301.741 411.708L300.385 409.2V413.7C300.385 413.78 300.357 413.852 300.301 413.916C300.245 413.972 300.173 414 300.085 414H298.645ZM312.615 414.12C311.487 414.12 310.599 413.844 309.951 413.292C309.303 412.74 308.959 411.928 308.919 410.856C308.911 410.624 308.907 410.28 308.907 409.824C308.907 409.36 308.911 409.012 308.919 408.78C308.959 407.724 309.307 406.912 309.963 406.344C310.627 405.768 311.511 405.48 312.615 405.48C313.719 405.48 314.603 405.768 315.267 406.344C315.931 406.912 316.279 407.724 316.311 408.78C316.327 409.244 316.335 409.592 316.335 409.824C316.335 410.048 316.327 410.392 316.311 410.856C316.271 411.928 315.927 412.74 315.279 413.292C314.631 413.844 313.743 414.12 312.615 414.12ZM312.615 412.392C313.055 412.392 313.403 412.26 313.659 411.996C313.923 411.732 314.063 411.328 314.079 410.784C314.095 410.32 314.103 409.992 314.103 409.8C314.103 409.592 314.095 409.264 314.079 408.816C314.063 408.272 313.923 407.868 313.659 407.604C313.395 407.34 313.047 407.208 312.615 407.208C312.183 407.208 311.835 407.34 311.571 407.604C311.315 407.868 311.175 408.272 311.151 408.816C311.143 409.04 311.139 409.368 311.139 409.8C311.139 410.224 311.143 410.552 311.151 410.784C311.175 411.328 311.315 411.732 311.571 411.996C311.827 412.26 312.175 412.392 312.615 412.392ZM318.926 414C318.846 414 318.774 413.972 318.71 413.916C318.654 413.852 318.626 413.78 318.626 413.7V405.9C318.626 405.812 318.654 405.74 318.71 405.684C318.774 405.628 318.846 405.6 318.926 405.6H322.046C323.222 405.6 324.134 405.88 324.782 406.44C325.43 407 325.77 407.812 325.802 408.876C325.81 409.108 325.814 409.416 325.814 409.8C325.814 410.184 325.81 410.488 325.802 410.712C325.762 411.824 325.43 412.652 324.806 413.196C324.19 413.732 323.29 414 322.106 414H318.926ZM322.046 412.272C322.574 412.272 322.962 412.148 323.21 411.9C323.458 411.644 323.59 411.24 323.606 410.688C323.622 410.456 323.63 410.156 323.63 409.788C323.63 409.42 323.622 409.124 323.606 408.9C323.59 408.364 323.446 407.968 323.174 407.712C322.91 407.456 322.514 407.328 321.986 407.328H320.786V412.272H322.046ZM328.416 414C328.336 414 328.264 413.972 328.2 413.916C328.144 413.852 328.116 413.78 328.116 413.7V405.9C328.116 405.812 328.144 405.74 328.2 405.684C328.264 405.628 328.336 405.6 328.416 405.6H334.02C334.108 405.6 334.18 405.628 334.236 405.684C334.292 405.74 334.32 405.812 334.32 405.9V407.028C334.32 407.108 334.292 407.18 334.236 407.244C334.18 407.3 334.108 407.328 334.02 407.328H330.192V408.948H333.756C333.844 408.948 333.916 408.98 333.972 409.044C334.028 409.1 334.056 409.172 334.056 409.26V410.304C334.056 410.384 334.028 410.456 333.972 410.52C333.916 410.576 333.844 410.604 333.756 410.604H330.192V412.272H334.116C334.204 412.272 334.276 412.3 334.332 412.356C334.388 412.412 334.416 412.484 334.416 412.572V413.7C334.416 413.78 334.388 413.852 334.332 413.916C334.276 413.972 334.204 414 334.116 414H328.416ZM336.98 414C336.9 414 336.828 413.972 336.764 413.916C336.708 413.852 336.68 413.78 336.68 413.7V405.9C336.68 405.812 336.708 405.74 336.764 405.684C336.828 405.628 336.9 405.6 336.98 405.6H338.564C338.652 405.6 338.724 405.628 338.78 405.684C338.836 405.74 338.864 405.812 338.864 405.9V412.188H342.5C342.588 412.188 342.66 412.22 342.716 412.284C342.772 412.34 342.8 412.412 342.8 412.5V413.7C342.8 413.78 342.772 413.852 342.716 413.916C342.66 413.972 342.588 414 342.5 414H336.98Z" fill="black"/>
<path d="M31.4994 21C31.4194 21 31.3474 20.972 31.2834 20.916C31.2274 20.852 31.1994 20.78 31.1994 20.7V12.9C31.1994 12.812 31.2274 12.74 31.2834 12.684C31.3474 12.628 31.4194 12.6 31.4994 12.6H32.7954C32.9874 12.6 33.1274 12.688 33.2154 12.864L35.3274 16.644L37.4394 12.864C37.5274 12.688 37.6674 12.6 37.8594 12.6H39.1434C39.2314 12.6 39.3034 12.628 39.3594 12.684C39.4234 12.74 39.4554 12.812 39.4554 12.9V20.7C39.4554 20.788 39.4234 20.86 39.3594 20.916C39.3034 20.972 39.2314 21 39.1434 21H37.7154C37.6274 21 37.5514 20.972 37.4874 20.916C37.4314 20.86 37.4034 20.788 37.4034 20.7V16.2L36.0594 18.708C35.9554 18.892 35.8154 18.984 35.6394 18.984H35.0154C34.9114 18.984 34.8274 18.96 34.7634 18.912C34.6994 18.864 34.6434 18.796 34.5954 18.708L33.2394 16.2V20.7C33.2394 20.78 33.2114 20.852 33.1554 20.916C33.0994 20.972 33.0274 21 32.9394 21H31.4994ZM43.7769 21.12C43.3529 21.12 42.9649 21.04 42.6129 20.88C42.2689 20.712 41.9969 20.488 41.7969 20.208C41.6049 19.92 41.5089 19.604 41.5089 19.26C41.5089 18.708 41.7329 18.264 42.1809 17.928C42.6369 17.592 43.2609 17.36 44.0529 17.232L45.5529 17.004V16.836C45.5529 16.532 45.4889 16.308 45.3609 16.164C45.2329 16.02 45.0169 15.948 44.7129 15.948C44.5289 15.948 44.3769 15.98 44.2569 16.044C44.1369 16.108 44.0129 16.196 43.8849 16.308C43.7729 16.404 43.6889 16.468 43.6329 16.5C43.6089 16.564 43.5649 16.596 43.5009 16.596H42.1929C42.1129 16.596 42.0449 16.572 41.9889 16.524C41.9409 16.468 41.9209 16.404 41.9289 16.332C41.9369 16.116 42.0409 15.876 42.2409 15.612C42.4489 15.348 42.7609 15.12 43.1769 14.928C43.6009 14.736 44.1209 14.64 44.7369 14.64C45.7209 14.64 46.4489 14.86 46.9209 15.3C47.3929 15.732 47.6289 16.316 47.6289 17.052V20.7C47.6289 20.78 47.6009 20.852 47.5449 20.916C47.4889 20.972 47.4169 21 47.3289 21H45.9369C45.8569 21 45.7849 20.972 45.7209 20.916C45.6649 20.852 45.6369 20.78 45.6369 20.7V20.28C45.4609 20.528 45.2129 20.732 44.8929 20.892C44.5809 21.044 44.2089 21.12 43.7769 21.12ZM44.3409 19.752C44.7089 19.752 45.0049 19.632 45.2289 19.392C45.4609 19.152 45.5769 18.8 45.5769 18.336V18.168L44.5569 18.348C43.8369 18.476 43.4769 18.728 43.4769 19.104C43.4769 19.304 43.5609 19.464 43.7289 19.584C43.8969 19.696 44.1009 19.752 44.3409 19.752ZM50.183 21C50.095 21 50.023 20.972 49.967 20.916C49.911 20.86 49.883 20.788 49.883 20.7V15.06C49.883 14.972 49.911 14.9 49.967 14.844C50.023 14.788 50.095 14.76 50.183 14.76H51.563C51.651 14.76 51.723 14.792 51.779 14.856C51.843 14.912 51.875 14.98 51.875 15.06V15.54C52.315 15.02 52.907 14.76 53.651 14.76H54.179C54.267 14.76 54.339 14.788 54.395 14.844C54.451 14.9 54.479 14.972 54.479 15.06V16.296C54.479 16.376 54.451 16.448 54.395 16.512C54.339 16.568 54.267 16.596 54.179 16.596H53.015C52.687 16.596 52.431 16.688 52.247 16.872C52.071 17.048 51.983 17.3 51.983 17.628V20.7C51.983 20.788 51.951 20.86 51.887 20.916C51.831 20.972 51.759 21 51.671 21H50.183ZM59.2336 23.64C58.4736 23.64 57.8576 23.516 57.3856 23.268C56.9136 23.02 56.5736 22.736 56.3656 22.416C56.1656 22.096 56.0656 21.828 56.0656 21.612C56.0656 21.54 56.0976 21.476 56.1616 21.42C56.2256 21.364 56.2976 21.336 56.3776 21.336H57.9016C57.9816 21.336 58.0416 21.352 58.0816 21.384C58.1296 21.424 58.1736 21.488 58.2136 21.576C58.2936 21.76 58.4016 21.904 58.5376 22.008C58.6736 22.12 58.8856 22.176 59.1736 22.176C59.5416 22.176 59.8136 22.084 59.9896 21.9C60.1656 21.724 60.2536 21.424 60.2536 21V20.196C59.8456 20.644 59.2616 20.868 58.5016 20.868C57.6936 20.868 57.0736 20.632 56.6416 20.16C56.2176 19.68 55.9856 18.988 55.9456 18.084L55.9336 17.76C55.9336 16.792 56.1496 16.032 56.5816 15.48C57.0136 14.92 57.6536 14.64 58.5016 14.64C58.9096 14.64 59.2696 14.72 59.5816 14.88C59.8936 15.032 60.1576 15.24 60.3736 15.504V15.06C60.3736 14.972 60.4016 14.9 60.4576 14.844C60.5216 14.788 60.5936 14.76 60.6736 14.76H62.0536C62.1416 14.76 62.2136 14.792 62.2696 14.856C62.3336 14.912 62.3656 14.98 62.3656 15.06V20.832C62.3656 21.744 62.0936 22.44 61.5496 22.92C61.0056 23.4 60.2336 23.64 59.2336 23.64ZM59.1496 19.308C59.5096 19.308 59.7776 19.2 59.9536 18.984C60.1296 18.76 60.2296 18.48 60.2536 18.144C60.2616 18.088 60.2656 17.964 60.2656 17.772C60.2656 17.588 60.2616 17.468 60.2536 17.412C60.2376 17.076 60.1376 16.8 59.9536 16.584C59.7776 16.36 59.5096 16.248 59.1496 16.248C58.7736 16.248 58.5016 16.36 58.3336 16.584C58.1656 16.808 58.0736 17.116 58.0576 17.508L58.0456 17.772C58.0456 18.244 58.1256 18.62 58.2856 18.9C58.4456 19.172 58.7336 19.308 59.1496 19.308ZM64.9671 13.86C64.8791 13.86 64.8071 13.832 64.7511 13.776C64.6951 13.72 64.6671 13.648 64.6671 13.56V12.48C64.6671 12.392 64.6951 12.32 64.7511 12.264C64.8071 12.208 64.8791 12.18 64.9671 12.18H66.4071C66.4951 12.18 66.5671 12.208 66.6231 12.264C66.6791 12.32 66.7071 12.392 66.7071 12.48V13.56C66.7071 13.648 66.6791 13.72 66.6231 13.776C66.5671 13.832 66.4951 13.86 66.4071 13.86H64.9671ZM64.9791 21C64.8911 21 64.8191 20.972 64.7631 20.916C64.7071 20.86 64.6791 20.788 64.6791 20.7V15.06C64.6791 14.972 64.7071 14.9 64.7631 14.844C64.8191 14.788 64.8911 14.76 64.9791 14.76H66.3951C66.4831 14.76 66.5551 14.788 66.6111 14.844C66.6671 14.9 66.6951 14.972 66.6951 15.06V20.7C66.6951 20.78 66.6671 20.852 66.6111 20.916C66.5551 20.972 66.4831 21 66.3951 21H64.9791ZM69.3127 21C69.2247 21 69.1527 20.972 69.0967 20.916C69.0407 20.86 69.0127 20.788 69.0127 20.7V15.06C69.0127 14.972 69.0407 14.9 69.0967 14.844C69.1527 14.788 69.2247 14.76 69.3127 14.76H70.6927C70.7807 14.76 70.8527 14.788 70.9087 14.844C70.9727 14.9 71.0047 14.972 71.0047 15.06V15.516C71.2207 15.252 71.4967 15.04 71.8327 14.88C72.1767 14.72 72.5647 14.64 72.9967 14.64C73.7007 14.64 74.2727 14.88 74.7127 15.36C75.1527 15.832 75.3727 16.496 75.3727 17.352V20.7C75.3727 20.78 75.3447 20.852 75.2887 20.916C75.2327 20.972 75.1607 21 75.0727 21H73.5607C73.4807 21 73.4087 20.972 73.3447 20.916C73.2887 20.852 73.2607 20.78 73.2607 20.7V17.424C73.2607 17.048 73.1687 16.76 72.9847 16.56C72.8007 16.352 72.5367 16.248 72.1927 16.248C71.8567 16.248 71.5927 16.352 71.4007 16.56C71.2087 16.76 71.1127 17.048 71.1127 17.424V20.7C71.1127 20.78 71.0847 20.852 71.0287 20.916C70.9727 20.972 70.9007 21 70.8127 21H69.3127ZM81.5103 21C81.4303 21 81.3583 20.972 81.2943 20.916C81.2383 20.852 81.2103 20.78 81.2103 20.7V12.9C81.2103 12.812 81.2383 12.74 81.2943 12.684C81.3583 12.628 81.4303 12.6 81.5103 12.6H87.1143C87.2023 12.6 87.2743 12.628 87.3303 12.684C87.3863 12.74 87.4143 12.812 87.4143 12.9V14.028C87.4143 14.108 87.3863 14.18 87.3303 14.244C87.2743 14.3 87.2023 14.328 87.1143 14.328H83.2863V15.948H86.8503C86.9383 15.948 87.0103 15.98 87.0663 16.044C87.1223 16.1 87.1503 16.172 87.1503 16.26V17.304C87.1503 17.384 87.1223 17.456 87.0663 17.52C87.0103 17.576 86.9383 17.604 86.8503 17.604H83.2863V19.272H87.2103C87.2983 19.272 87.3703 19.3 87.4263 19.356C87.4823 19.412 87.5103 19.484 87.5103 19.572V20.7C87.5103 20.78 87.4823 20.852 87.4263 20.916C87.3703 20.972 87.2983 21 87.2103 21H81.5103ZM91.9352 21.12C91.1512 21.12 90.5392 20.876 90.0992 20.388C89.6672 19.892 89.4312 19.196 89.3912 18.3L89.3792 17.88L89.3912 17.448C89.4232 16.584 89.6592 15.9 90.0992 15.396C90.5472 14.892 91.1592 14.64 91.9352 14.64C92.6632 14.64 93.2512 14.876 93.6992 15.348V12.78C93.6992 12.692 93.7272 12.62 93.7832 12.564C93.8392 12.508 93.9112 12.48 93.9992 12.48H95.4632C95.5512 12.48 95.6232 12.508 95.6792 12.564C95.7352 12.62 95.7632 12.692 95.7632 12.78V20.7C95.7632 20.78 95.7352 20.852 95.6792 20.916C95.6232 20.972 95.5512 21 95.4632 21H94.1072C94.0272 21 93.9552 20.972 93.8912 20.916C93.8352 20.852 93.8072 20.78 93.8072 20.7V20.316C93.3672 20.852 92.7432 21.12 91.9352 21.12ZM92.5952 19.512C92.9552 19.512 93.2232 19.4 93.3992 19.176C93.5752 18.944 93.6752 18.648 93.6992 18.288C93.7072 18.184 93.7112 18.032 93.7112 17.832C93.7112 17.64 93.7072 17.492 93.6992 17.388C93.6832 17.06 93.5832 16.788 93.3992 16.572C93.2152 16.356 92.9472 16.248 92.5952 16.248C92.2192 16.248 91.9472 16.36 91.7792 16.584C91.6192 16.808 91.5272 17.116 91.5032 17.508C91.4952 17.588 91.4912 17.712 91.4912 17.88C91.4912 18.048 91.4952 18.172 91.5032 18.252C91.5272 18.644 91.6192 18.952 91.7792 19.176C91.9472 19.4 92.2192 19.512 92.5952 19.512ZM101.138 23.64C100.378 23.64 99.7615 23.516 99.2895 23.268C98.8175 23.02 98.4775 22.736 98.2695 22.416C98.0695 22.096 97.9695 21.828 97.9695 21.612C97.9695 21.54 98.0015 21.476 98.0655 21.42C98.1295 21.364 98.2015 21.336 98.2815 21.336H99.8055C99.8855 21.336 99.9455 21.352 99.9855 21.384C100.034 21.424 100.078 21.488 100.118 21.576C100.198 21.76 100.306 21.904 100.442 22.008C100.578 22.12 100.79 22.176 101.078 22.176C101.446 22.176 101.718 22.084 101.894 21.9C102.07 21.724 102.158 21.424 102.158 21V20.196C101.75 20.644 101.166 20.868 100.406 20.868C99.5975 20.868 98.9775 20.632 98.5455 20.16C98.1215 19.68 97.8895 18.988 97.8495 18.084L97.8375 17.76C97.8375 16.792 98.0535 16.032 98.4855 15.48C98.9175 14.92 99.5575 14.64 100.406 14.64C100.814 14.64 101.174 14.72 101.486 14.88C101.798 15.032 102.062 15.24 102.278 15.504V15.06C102.278 14.972 102.306 14.9 102.362 14.844C102.426 14.788 102.498 14.76 102.578 14.76H103.958C104.046 14.76 104.118 14.792 104.174 14.856C104.238 14.912 104.27 14.98 104.27 15.06V20.832C104.27 21.744 103.998 22.44 103.454 22.92C102.91 23.4 102.138 23.64 101.138 23.64ZM101.054 19.308C101.414 19.308 101.682 19.2 101.858 18.984C102.034 18.76 102.134 18.48 102.158 18.144C102.166 18.088 102.17 17.964 102.17 17.772C102.17 17.588 102.166 17.468 102.158 17.412C102.142 17.076 102.042 16.8 101.858 16.584C101.682 16.36 101.414 16.248 101.054 16.248C100.678 16.248 100.406 16.36 100.238 16.584C100.07 16.808 99.9775 17.116 99.9615 17.508L99.9495 17.772C99.9495 18.244 100.03 18.62 100.19 18.9C100.35 19.172 100.638 19.308 101.054 19.308ZM109.463 21.12C108.503 21.12 107.747 20.86 107.195 20.34C106.643 19.82 106.355 19.064 106.331 18.072V17.652C106.363 16.708 106.655 15.972 107.207 15.444C107.767 14.908 108.515 14.64 109.451 14.64C110.131 14.64 110.703 14.78 111.167 15.06C111.639 15.332 111.991 15.708 112.223 16.188C112.463 16.668 112.583 17.22 112.583 17.844V18.132C112.583 18.212 112.555 18.284 112.499 18.348C112.443 18.404 112.371 18.432 112.283 18.432H108.443V18.516C108.459 18.892 108.551 19.196 108.719 19.428C108.887 19.66 109.131 19.776 109.451 19.776C109.651 19.776 109.815 19.736 109.943 19.656C110.071 19.568 110.187 19.464 110.291 19.344C110.363 19.256 110.419 19.204 110.459 19.188C110.507 19.164 110.579 19.152 110.675 19.152H112.163C112.235 19.152 112.295 19.176 112.343 19.224C112.399 19.264 112.427 19.32 112.427 19.392C112.427 19.6 112.307 19.84 112.067 20.112C111.835 20.384 111.495 20.62 111.047 20.82C110.599 21.02 110.071 21.12 109.463 21.12ZM110.471 17.244V17.22C110.471 16.828 110.379 16.52 110.195 16.296C110.019 16.064 109.771 15.948 109.451 15.948C109.139 15.948 108.891 16.064 108.707 16.296C108.531 16.52 108.443 16.828 108.443 17.22V17.244H110.471Z" fill="black"/>
<path d="M83.5697 56C83.4897 56 83.4177 55.972 83.3537 55.916C83.2977 55.852 83.2697 55.78 83.2697 55.7V47.9C83.2697 47.812 83.2977 47.74 83.3537 47.684C83.4177 47.628 83.4897 47.6 83.5697 47.6H87.2297C88.2377 47.6 88.9857 47.808 89.4737 48.224C89.9697 48.632 90.2177 49.216 90.2177 49.976C90.2177 50.376 90.1137 50.716 89.9057 50.996C89.7057 51.268 89.4777 51.468 89.2217 51.596C89.5497 51.748 89.8257 51.992 90.0497 52.328C90.2737 52.664 90.3857 53.04 90.3857 53.456C90.3857 54.256 90.1217 54.88 89.5937 55.328C89.0657 55.776 88.3137 56 87.3377 56H83.5697ZM86.9897 50.936C87.3097 50.936 87.5537 50.856 87.7217 50.696C87.8897 50.528 87.9737 50.308 87.9737 50.036C87.9737 49.772 87.8897 49.56 87.7217 49.4C87.5537 49.24 87.3097 49.16 86.9897 49.16H85.4297V50.936H86.9897ZM87.0977 54.44C87.4257 54.44 87.6817 54.344 87.8657 54.152C88.0497 53.96 88.1417 53.728 88.1417 53.456C88.1417 53.168 88.0497 52.932 87.8657 52.748C87.6817 52.556 87.4257 52.46 87.0977 52.46H85.4297V54.44H87.0977ZM95.4389 56.12C94.4469 56.12 93.6829 55.884 93.1469 55.412C92.6109 54.94 92.3189 54.276 92.2709 53.42C92.2629 53.316 92.2589 53.136 92.2589 52.88C92.2589 52.624 92.2629 52.444 92.2709 52.34C92.3189 51.492 92.6189 50.832 93.1709 50.36C93.7229 49.88 94.4789 49.64 95.4389 49.64C96.4069 49.64 97.1669 49.88 97.7189 50.36C98.2709 50.832 98.5709 51.492 98.6189 52.34C98.6269 52.444 98.6309 52.624 98.6309 52.88C98.6309 53.136 98.6269 53.316 98.6189 53.42C98.5709 54.276 98.2789 54.94 97.7429 55.412C97.2069 55.884 96.4389 56.12 95.4389 56.12ZM95.4389 54.656C95.7909 54.656 96.0509 54.552 96.2189 54.344C96.3869 54.128 96.4829 53.8 96.5069 53.36C96.5149 53.28 96.5189 53.12 96.5189 52.88C96.5189 52.64 96.5149 52.48 96.5069 52.4C96.4829 51.968 96.3829 51.644 96.2069 51.428C96.0389 51.212 95.7829 51.104 95.4389 51.104C94.7749 51.104 94.4229 51.536 94.3829 52.4L94.3709 52.88L94.3829 53.36C94.3989 53.8 94.4909 54.128 94.6589 54.344C94.8349 54.552 95.0949 54.656 95.4389 54.656ZM101.023 56C100.935 56 100.863 55.972 100.807 55.916C100.751 55.86 100.723 55.788 100.723 55.7V50.06C100.723 49.972 100.751 49.9 100.807 49.844C100.863 49.788 100.935 49.76 101.023 49.76H102.403C102.491 49.76 102.563 49.792 102.619 49.856C102.683 49.912 102.715 49.98 102.715 50.06V50.54C103.155 50.02 103.747 49.76 104.491 49.76H105.019C105.107 49.76 105.179 49.788 105.235 49.844C105.291 49.9 105.319 49.972 105.319 50.06V51.296C105.319 51.376 105.291 51.448 105.235 51.512C105.179 51.568 105.107 51.596 105.019 51.596H103.855C103.527 51.596 103.271 51.688 103.087 51.872C102.911 52.048 102.823 52.3 102.823 52.628V55.7C102.823 55.788 102.791 55.86 102.727 55.916C102.671 55.972 102.599 56 102.511 56H101.023ZM109.341 56.12C108.557 56.12 107.945 55.876 107.505 55.388C107.073 54.892 106.837 54.196 106.797 53.3L106.785 52.88L106.797 52.448C106.829 51.584 107.065 50.9 107.505 50.396C107.953 49.892 108.565 49.64 109.341 49.64C110.069 49.64 110.657 49.876 111.105 50.348V47.78C111.105 47.692 111.133 47.62 111.189 47.564C111.245 47.508 111.317 47.48 111.405 47.48H112.869C112.957 47.48 113.029 47.508 113.085 47.564C113.141 47.62 113.169 47.692 113.169 47.78V55.7C113.169 55.78 113.141 55.852 113.085 55.916C113.029 55.972 112.957 56 112.869 56H111.513C111.433 56 111.361 55.972 111.297 55.916C111.241 55.852 111.213 55.78 111.213 55.7V55.316C110.773 55.852 110.149 56.12 109.341 56.12ZM110.001 54.512C110.361 54.512 110.629 54.4 110.805 54.176C110.981 53.944 111.081 53.648 111.105 53.288C111.113 53.184 111.117 53.032 111.117 52.832C111.117 52.64 111.113 52.492 111.105 52.388C111.089 52.06 110.989 51.788 110.805 51.572C110.621 51.356 110.353 51.248 110.001 51.248C109.625 51.248 109.353 51.36 109.185 51.584C109.025 51.808 108.933 52.116 108.909 52.508C108.901 52.588 108.897 52.712 108.897 52.88C108.897 53.048 108.901 53.172 108.909 53.252C108.933 53.644 109.025 53.952 109.185 54.176C109.353 54.4 109.625 54.512 110.001 54.512ZM118.364 56.12C117.404 56.12 116.648 55.86 116.096 55.34C115.544 54.82 115.256 54.064 115.232 53.072V52.652C115.264 51.708 115.556 50.972 116.108 50.444C116.668 49.908 117.416 49.64 118.352 49.64C119.032 49.64 119.604 49.78 120.068 50.06C120.54 50.332 120.892 50.708 121.124 51.188C121.364 51.668 121.484 52.22 121.484 52.844V53.132C121.484 53.212 121.456 53.284 121.4 53.348C121.344 53.404 121.272 53.432 121.184 53.432H117.344V53.516C117.36 53.892 117.452 54.196 117.62 54.428C117.788 54.66 118.032 54.776 118.352 54.776C118.552 54.776 118.716 54.736 118.844 54.656C118.972 54.568 119.088 54.464 119.192 54.344C119.264 54.256 119.32 54.204 119.36 54.188C119.408 54.164 119.48 54.152 119.576 54.152H121.064C121.136 54.152 121.196 54.176 121.244 54.224C121.3 54.264 121.328 54.32 121.328 54.392C121.328 54.6 121.208 54.84 120.968 55.112C120.736 55.384 120.396 55.62 119.948 55.82C119.5 56.02 118.972 56.12 118.364 56.12ZM119.372 52.244V52.22C119.372 51.828 119.28 51.52 119.096 51.296C118.92 51.064 118.672 50.948 118.352 50.948C118.04 50.948 117.792 51.064 117.608 51.296C117.432 51.52 117.344 51.828 117.344 52.22V52.244H119.372ZM123.809 56C123.721 56 123.649 55.972 123.593 55.916C123.537 55.86 123.509 55.788 123.509 55.7V50.06C123.509 49.972 123.537 49.9 123.593 49.844C123.649 49.788 123.721 49.76 123.809 49.76H125.189C125.277 49.76 125.349 49.792 125.405 49.856C125.469 49.912 125.501 49.98 125.501 50.06V50.54C125.941 50.02 126.533 49.76 127.277 49.76H127.805C127.893 49.76 127.965 49.788 128.021 49.844C128.077 49.9 128.105 49.972 128.105 50.06V51.296C128.105 51.376 128.077 51.448 128.021 51.512C127.965 51.568 127.893 51.596 127.805 51.596H126.641C126.313 51.596 126.057 51.688 125.873 51.872C125.697 52.048 125.609 52.3 125.609 52.628V55.7C125.609 55.788 125.577 55.86 125.513 55.916C125.457 55.972 125.385 56 125.297 56H123.809ZM133.51 56C133.43 56 133.358 55.972 133.294 55.916C133.238 55.852 133.21 55.78 133.21 55.7V47.9C133.21 47.812 133.238 47.74 133.294 47.684C133.358 47.628 133.43 47.6 133.51 47.6H139.114C139.202 47.6 139.274 47.628 139.33 47.684C139.386 47.74 139.414 47.812 139.414 47.9V49.028C139.414 49.108 139.386 49.18 139.33 49.244C139.274 49.3 139.202 49.328 139.114 49.328H135.286V50.948H138.85C138.938 50.948 139.01 50.98 139.066 51.044C139.122 51.1 139.15 51.172 139.15 51.26V52.304C139.15 52.384 139.122 52.456 139.066 52.52C139.01 52.576 138.938 52.604 138.85 52.604H135.286V54.272H139.21C139.298 54.272 139.37 54.3 139.426 54.356C139.482 54.412 139.51 54.484 139.51 54.572V55.7C139.51 55.78 139.482 55.852 139.426 55.916C139.37 55.972 139.298 56 139.21 56H133.51ZM143.935 56.12C143.151 56.12 142.539 55.876 142.099 55.388C141.667 54.892 141.431 54.196 141.391 53.3L141.379 52.88L141.391 52.448C141.423 51.584 141.659 50.9 142.099 50.396C142.547 49.892 143.159 49.64 143.935 49.64C144.663 49.64 145.251 49.876 145.699 50.348V47.78C145.699 47.692 145.727 47.62 145.783 47.564C145.839 47.508 145.911 47.48 145.999 47.48H147.463C147.551 47.48 147.623 47.508 147.679 47.564C147.735 47.62 147.763 47.692 147.763 47.78V55.7C147.763 55.78 147.735 55.852 147.679 55.916C147.623 55.972 147.551 56 147.463 56H146.107C146.027 56 145.955 55.972 145.891 55.916C145.835 55.852 145.807 55.78 145.807 55.7V55.316C145.367 55.852 144.743 56.12 143.935 56.12ZM144.595 54.512C144.955 54.512 145.223 54.4 145.399 54.176C145.575 53.944 145.675 53.648 145.699 53.288C145.707 53.184 145.711 53.032 145.711 52.832C145.711 52.64 145.707 52.492 145.699 52.388C145.683 52.06 145.583 51.788 145.399 51.572C145.215 51.356 144.947 51.248 144.595 51.248C144.219 51.248 143.947 51.36 143.779 51.584C143.619 51.808 143.527 52.116 143.503 52.508C143.495 52.588 143.491 52.712 143.491 52.88C143.491 53.048 143.495 53.172 143.503 53.252C143.527 53.644 143.619 53.952 143.779 54.176C143.947 54.4 144.219 54.512 144.595 54.512ZM153.138 58.64C152.378 58.64 151.762 58.516 151.29 58.268C150.818 58.02 150.478 57.736 150.27 57.416C150.07 57.096 149.97 56.828 149.97 56.612C149.97 56.54 150.002 56.476 150.066 56.42C150.13 56.364 150.202 56.336 150.282 56.336H151.806C151.886 56.336 151.946 56.352 151.986 56.384C152.034 56.424 152.078 56.488 152.118 56.576C152.198 56.76 152.306 56.904 152.442 57.008C152.578 57.12 152.79 57.176 153.078 57.176C153.446 57.176 153.718 57.084 153.894 56.9C154.07 56.724 154.158 56.424 154.158 56V55.196C153.75 55.644 153.166 55.868 152.406 55.868C151.598 55.868 150.978 55.632 150.546 55.16C150.122 54.68 149.89 53.988 149.85 53.084L149.838 52.76C149.838 51.792 150.054 51.032 150.486 50.48C150.918 49.92 151.558 49.64 152.406 49.64C152.814 49.64 153.174 49.72 153.486 49.88C153.798 50.032 154.062 50.24 154.278 50.504V50.06C154.278 49.972 154.306 49.9 154.362 49.844C154.426 49.788 154.498 49.76 154.578 49.76H155.958C156.046 49.76 156.118 49.792 156.174 49.856C156.238 49.912 156.27 49.98 156.27 50.06V55.832C156.27 56.744 155.998 57.44 155.454 57.92C154.91 58.4 154.138 58.64 153.138 58.64ZM153.054 54.308C153.414 54.308 153.682 54.2 153.858 53.984C154.034 53.76 154.134 53.48 154.158 53.144C154.166 53.088 154.17 52.964 154.17 52.772C154.17 52.588 154.166 52.468 154.158 52.412C154.142 52.076 154.042 51.8 153.858 51.584C153.682 51.36 153.414 51.248 153.054 51.248C152.678 51.248 152.406 51.36 152.238 51.584C152.07 51.808 151.978 52.116 151.962 52.508L151.95 52.772C151.95 53.244 152.03 53.62 152.19 53.9C152.35 54.172 152.638 54.308 153.054 54.308ZM161.463 56.12C160.503 56.12 159.747 55.86 159.195 55.34C158.643 54.82 158.355 54.064 158.331 53.072V52.652C158.363 51.708 158.655 50.972 159.207 50.444C159.767 49.908 160.515 49.64 161.451 49.64C162.131 49.64 162.703 49.78 163.167 50.06C163.639 50.332 163.991 50.708 164.223 51.188C164.463 51.668 164.583 52.22 164.583 52.844V53.132C164.583 53.212 164.555 53.284 164.499 53.348C164.443 53.404 164.371 53.432 164.283 53.432H160.443V53.516C160.459 53.892 160.551 54.196 160.719 54.428C160.887 54.66 161.131 54.776 161.451 54.776C161.651 54.776 161.815 54.736 161.943 54.656C162.071 54.568 162.187 54.464 162.291 54.344C162.363 54.256 162.419 54.204 162.459 54.188C162.507 54.164 162.579 54.152 162.675 54.152H164.163C164.235 54.152 164.295 54.176 164.343 54.224C164.399 54.264 164.427 54.32 164.427 54.392C164.427 54.6 164.307 54.84 164.067 55.112C163.835 55.384 163.495 55.62 163.047 55.82C162.599 56.02 162.071 56.12 161.463 56.12ZM162.471 52.244V52.22C162.471 51.828 162.379 51.52 162.195 51.296C162.019 51.064 161.771 50.948 161.451 50.948C161.139 50.948 160.891 51.064 160.707 51.296C160.531 51.52 160.443 51.828 160.443 52.22V52.244H162.471Z" fill="black"/>
<path d="M123.818 86C123.738 86 123.666 85.972 123.602 85.916C123.546 85.852 123.518 85.78 123.518 85.7V77.9C123.518 77.812 123.546 77.74 123.602 77.684C123.666 77.628 123.738 77.6 123.818 77.6H127.178C128.202 77.6 129.006 77.836 129.59 78.308C130.182 78.78 130.478 79.468 130.478 80.372C130.478 81.268 130.186 81.944 129.602 82.4C129.018 82.848 128.21 83.072 127.178 83.072H125.75V85.7C125.75 85.788 125.718 85.86 125.654 85.916C125.598 85.972 125.526 86 125.438 86H123.818ZM127.118 81.416C127.47 81.416 127.746 81.328 127.946 81.152C128.146 80.968 128.246 80.7 128.246 80.348C128.246 80.02 128.15 79.76 127.958 79.568C127.774 79.368 127.494 79.268 127.118 79.268H125.714V81.416H127.118ZM134.127 86.12C133.703 86.12 133.315 86.04 132.963 85.88C132.619 85.712 132.347 85.488 132.147 85.208C131.955 84.92 131.859 84.604 131.859 84.26C131.859 83.708 132.083 83.264 132.531 82.928C132.987 82.592 133.611 82.36 134.403 82.232L135.903 82.004V81.836C135.903 81.532 135.839 81.308 135.711 81.164C135.583 81.02 135.367 80.948 135.063 80.948C134.879 80.948 134.727 80.98 134.607 81.044C134.487 81.108 134.363 81.196 134.235 81.308C134.123 81.404 134.039 81.468 133.983 81.5C133.959 81.564 133.915 81.596 133.851 81.596H132.543C132.463 81.596 132.395 81.572 132.339 81.524C132.291 81.468 132.271 81.404 132.279 81.332C132.287 81.116 132.391 80.876 132.591 80.612C132.799 80.348 133.111 80.12 133.527 79.928C133.951 79.736 134.471 79.64 135.087 79.64C136.071 79.64 136.799 79.86 137.271 80.3C137.743 80.732 137.979 81.316 137.979 82.052V85.7C137.979 85.78 137.951 85.852 137.895 85.916C137.839 85.972 137.767 86 137.679 86H136.287C136.207 86 136.135 85.972 136.071 85.916C136.015 85.852 135.987 85.78 135.987 85.7V85.28C135.811 85.528 135.563 85.732 135.243 85.892C134.931 86.044 134.559 86.12 134.127 86.12ZM134.691 84.752C135.059 84.752 135.355 84.632 135.579 84.392C135.811 84.152 135.927 83.8 135.927 83.336V83.168L134.907 83.348C134.187 83.476 133.827 83.728 133.827 84.104C133.827 84.304 133.911 84.464 134.079 84.584C134.247 84.696 134.451 84.752 134.691 84.752ZM142.561 86.12C141.777 86.12 141.165 85.876 140.725 85.388C140.293 84.892 140.057 84.196 140.017 83.3L140.005 82.88L140.017 82.448C140.049 81.584 140.285 80.9 140.725 80.396C141.173 79.892 141.785 79.64 142.561 79.64C143.289 79.64 143.877 79.876 144.325 80.348V77.78C144.325 77.692 144.353 77.62 144.409 77.564C144.465 77.508 144.537 77.48 144.625 77.48H146.089C146.177 77.48 146.249 77.508 146.305 77.564C146.361 77.62 146.389 77.692 146.389 77.78V85.7C146.389 85.78 146.361 85.852 146.305 85.916C146.249 85.972 146.177 86 146.089 86H144.733C144.653 86 144.581 85.972 144.517 85.916C144.461 85.852 144.433 85.78 144.433 85.7V85.316C143.993 85.852 143.369 86.12 142.561 86.12ZM143.221 84.512C143.581 84.512 143.849 84.4 144.025 84.176C144.201 83.944 144.301 83.648 144.325 83.288C144.333 83.184 144.337 83.032 144.337 82.832C144.337 82.64 144.333 82.492 144.325 82.388C144.309 82.06 144.209 81.788 144.025 81.572C143.841 81.356 143.573 81.248 143.221 81.248C142.845 81.248 142.573 81.36 142.405 81.584C142.245 81.808 142.153 82.116 142.129 82.508C142.121 82.588 142.117 82.712 142.117 82.88C142.117 83.048 142.121 83.172 142.129 83.252C142.153 83.644 142.245 83.952 142.405 84.176C142.573 84.4 142.845 84.512 143.221 84.512ZM151.031 86.12C150.247 86.12 149.635 85.876 149.195 85.388C148.763 84.892 148.527 84.196 148.487 83.3L148.475 82.88L148.487 82.448C148.519 81.584 148.755 80.9 149.195 80.396C149.643 79.892 150.255 79.64 151.031 79.64C151.759 79.64 152.347 79.876 152.795 80.348V77.78C152.795 77.692 152.823 77.62 152.879 77.564C152.935 77.508 153.007 77.48 153.095 77.48H154.559C154.647 77.48 154.719 77.508 154.775 77.564C154.831 77.62 154.859 77.692 154.859 77.78V85.7C154.859 85.78 154.831 85.852 154.775 85.916C154.719 85.972 154.647 86 154.559 86H153.203C153.123 86 153.051 85.972 152.987 85.916C152.931 85.852 152.903 85.78 152.903 85.7V85.316C152.463 85.852 151.839 86.12 151.031 86.12ZM151.691 84.512C152.051 84.512 152.319 84.4 152.495 84.176C152.671 83.944 152.771 83.648 152.795 83.288C152.803 83.184 152.807 83.032 152.807 82.832C152.807 82.64 152.803 82.492 152.795 82.388C152.779 82.06 152.679 81.788 152.495 81.572C152.311 81.356 152.043 81.248 151.691 81.248C151.315 81.248 151.043 81.36 150.875 81.584C150.715 81.808 150.623 82.116 150.599 82.508C150.591 82.588 150.587 82.712 150.587 82.88C150.587 83.048 150.591 83.172 150.599 83.252C150.623 83.644 150.715 83.952 150.875 84.176C151.043 84.4 151.315 84.512 151.691 84.512ZM157.462 78.86C157.374 78.86 157.302 78.832 157.246 78.776C157.19 78.72 157.162 78.648 157.162 78.56V77.48C157.162 77.392 157.19 77.32 157.246 77.264C157.302 77.208 157.374 77.18 157.462 77.18H158.902C158.99 77.18 159.062 77.208 159.118 77.264C159.174 77.32 159.202 77.392 159.202 77.48V78.56C159.202 78.648 159.174 78.72 159.118 78.776C159.062 78.832 158.99 78.86 158.902 78.86H157.462ZM157.474 86C157.386 86 157.314 85.972 157.258 85.916C157.202 85.86 157.174 85.788 157.174 85.7V80.06C157.174 79.972 157.202 79.9 157.258 79.844C157.314 79.788 157.386 79.76 157.474 79.76H158.89C158.978 79.76 159.05 79.788 159.106 79.844C159.162 79.9 159.19 79.972 159.19 80.06V85.7C159.19 85.78 159.162 85.852 159.106 85.916C159.05 85.972 158.978 86 158.89 86H157.474ZM161.807 86C161.719 86 161.647 85.972 161.591 85.916C161.535 85.86 161.507 85.788 161.507 85.7V80.06C161.507 79.972 161.535 79.9 161.591 79.844C161.647 79.788 161.719 79.76 161.807 79.76H163.187C163.275 79.76 163.347 79.788 163.403 79.844C163.467 79.9 163.499 79.972 163.499 80.06V80.516C163.715 80.252 163.991 80.04 164.327 79.88C164.671 79.72 165.059 79.64 165.491 79.64C166.195 79.64 166.767 79.88 167.207 80.36C167.647 80.832 167.867 81.496 167.867 82.352V85.7C167.867 85.78 167.839 85.852 167.783 85.916C167.727 85.972 167.655 86 167.567 86H166.055C165.975 86 165.903 85.972 165.839 85.916C165.783 85.852 165.755 85.78 165.755 85.7V82.424C165.755 82.048 165.663 81.76 165.479 81.56C165.295 81.352 165.031 81.248 164.687 81.248C164.351 81.248 164.087 81.352 163.895 81.56C163.703 81.76 163.607 82.048 163.607 82.424V85.7C163.607 85.78 163.579 85.852 163.523 85.916C163.467 85.972 163.395 86 163.307 86H161.807ZM173.178 88.64C172.418 88.64 171.802 88.516 171.33 88.268C170.858 88.02 170.518 87.736 170.31 87.416C170.11 87.096 170.01 86.828 170.01 86.612C170.01 86.54 170.042 86.476 170.106 86.42C170.17 86.364 170.242 86.336 170.322 86.336H171.846C171.926 86.336 171.986 86.352 172.026 86.384C172.074 86.424 172.118 86.488 172.158 86.576C172.238 86.76 172.346 86.904 172.482 87.008C172.618 87.12 172.83 87.176 173.118 87.176C173.486 87.176 173.758 87.084 173.934 86.9C174.11 86.724 174.198 86.424 174.198 86V85.196C173.79 85.644 173.206 85.868 172.446 85.868C171.638 85.868 171.018 85.632 170.586 85.16C170.162 84.68 169.93 83.988 169.89 83.084L169.878 82.76C169.878 81.792 170.094 81.032 170.526 80.48C170.958 79.92 171.598 79.64 172.446 79.64C172.854 79.64 173.214 79.72 173.526 79.88C173.838 80.032 174.102 80.24 174.318 80.504V80.06C174.318 79.972 174.346 79.9 174.402 79.844C174.466 79.788 174.538 79.76 174.618 79.76H175.998C176.086 79.76 176.158 79.792 176.214 79.856C176.278 79.912 176.31 79.98 176.31 80.06V85.832C176.31 86.744 176.038 87.44 175.494 87.92C174.95 88.4 174.178 88.64 173.178 88.64ZM173.094 84.308C173.454 84.308 173.722 84.2 173.898 83.984C174.074 83.76 174.174 83.48 174.198 83.144C174.206 83.088 174.21 82.964 174.21 82.772C174.21 82.588 174.206 82.468 174.198 82.412C174.182 82.076 174.082 81.8 173.898 81.584C173.722 81.36 173.454 81.248 173.094 81.248C172.718 81.248 172.446 81.36 172.278 81.584C172.11 81.808 172.018 82.116 172.002 82.508L171.99 82.772C171.99 83.244 172.07 83.62 172.23 83.9C172.39 84.172 172.678 84.308 173.094 84.308ZM182.51 86C182.43 86 182.358 85.972 182.294 85.916C182.238 85.852 182.21 85.78 182.21 85.7V77.9C182.21 77.812 182.238 77.74 182.294 77.684C182.358 77.628 182.43 77.6 182.51 77.6H188.114C188.202 77.6 188.274 77.628 188.33 77.684C188.386 77.74 188.414 77.812 188.414 77.9V79.028C188.414 79.108 188.386 79.18 188.33 79.244C188.274 79.3 188.202 79.328 188.114 79.328H184.286V80.948H187.85C187.938 80.948 188.01 80.98 188.066 81.044C188.122 81.1 188.15 81.172 188.15 81.26V82.304C188.15 82.384 188.122 82.456 188.066 82.52C188.01 82.576 187.938 82.604 187.85 82.604H184.286V84.272H188.21C188.298 84.272 188.37 84.3 188.426 84.356C188.482 84.412 188.51 84.484 188.51 84.572V85.7C188.51 85.78 188.482 85.852 188.426 85.916C188.37 85.972 188.298 86 188.21 86H182.51ZM192.935 86.12C192.151 86.12 191.539 85.876 191.099 85.388C190.667 84.892 190.431 84.196 190.391 83.3L190.379 82.88L190.391 82.448C190.423 81.584 190.659 80.9 191.099 80.396C191.547 79.892 192.159 79.64 192.935 79.64C193.663 79.64 194.251 79.876 194.699 80.348V77.78C194.699 77.692 194.727 77.62 194.783 77.564C194.839 77.508 194.911 77.48 194.999 77.48H196.463C196.551 77.48 196.623 77.508 196.679 77.564C196.735 77.62 196.763 77.692 196.763 77.78V85.7C196.763 85.78 196.735 85.852 196.679 85.916C196.623 85.972 196.551 86 196.463 86H195.107C195.027 86 194.955 85.972 194.891 85.916C194.835 85.852 194.807 85.78 194.807 85.7V85.316C194.367 85.852 193.743 86.12 192.935 86.12ZM193.595 84.512C193.955 84.512 194.223 84.4 194.399 84.176C194.575 83.944 194.675 83.648 194.699 83.288C194.707 83.184 194.711 83.032 194.711 82.832C194.711 82.64 194.707 82.492 194.699 82.388C194.683 82.06 194.583 81.788 194.399 81.572C194.215 81.356 193.947 81.248 193.595 81.248C193.219 81.248 192.947 81.36 192.779 81.584C192.619 81.808 192.527 82.116 192.503 82.508C192.495 82.588 192.491 82.712 192.491 82.88C192.491 83.048 192.495 83.172 192.503 83.252C192.527 83.644 192.619 83.952 192.779 84.176C192.947 84.4 193.219 84.512 193.595 84.512ZM202.138 88.64C201.378 88.64 200.762 88.516 200.29 88.268C199.818 88.02 199.478 87.736 199.27 87.416C199.07 87.096 198.97 86.828 198.97 86.612C198.97 86.54 199.002 86.476 199.066 86.42C199.13 86.364 199.202 86.336 199.282 86.336H200.806C200.886 86.336 200.946 86.352 200.986 86.384C201.034 86.424 201.078 86.488 201.118 86.576C201.198 86.76 201.306 86.904 201.442 87.008C201.578 87.12 201.79 87.176 202.078 87.176C202.446 87.176 202.718 87.084 202.894 86.9C203.07 86.724 203.158 86.424 203.158 86V85.196C202.75 85.644 202.166 85.868 201.406 85.868C200.598 85.868 199.978 85.632 199.546 85.16C199.122 84.68 198.89 83.988 198.85 83.084L198.838 82.76C198.838 81.792 199.054 81.032 199.486 80.48C199.918 79.92 200.558 79.64 201.406 79.64C201.814 79.64 202.174 79.72 202.486 79.88C202.798 80.032 203.062 80.24 203.278 80.504V80.06C203.278 79.972 203.306 79.9 203.362 79.844C203.426 79.788 203.498 79.76 203.578 79.76H204.958C205.046 79.76 205.118 79.792 205.174 79.856C205.238 79.912 205.27 79.98 205.27 80.06V85.832C205.27 86.744 204.998 87.44 204.454 87.92C203.91 88.4 203.138 88.64 202.138 88.64ZM202.054 84.308C202.414 84.308 202.682 84.2 202.858 83.984C203.034 83.76 203.134 83.48 203.158 83.144C203.166 83.088 203.17 82.964 203.17 82.772C203.17 82.588 203.166 82.468 203.158 82.412C203.142 82.076 203.042 81.8 202.858 81.584C202.682 81.36 202.414 81.248 202.054 81.248C201.678 81.248 201.406 81.36 201.238 81.584C201.07 81.808 200.978 82.116 200.962 82.508L200.95 82.772C200.95 83.244 201.03 83.62 201.19 83.9C201.35 84.172 201.638 84.308 202.054 84.308ZM210.463 86.12C209.503 86.12 208.747 85.86 208.195 85.34C207.643 84.82 207.355 84.064 207.331 83.072V82.652C207.363 81.708 207.655 80.972 208.207 80.444C208.767 79.908 209.515 79.64 210.451 79.64C211.131 79.64 211.703 79.78 212.167 80.06C212.639 80.332 212.991 80.708 213.223 81.188C213.463 81.668 213.583 82.22 213.583 82.844V83.132C213.583 83.212 213.555 83.284 213.499 83.348C213.443 83.404 213.371 83.432 213.283 83.432H209.443V83.516C209.459 83.892 209.551 84.196 209.719 84.428C209.887 84.66 210.131 84.776 210.451 84.776C210.651 84.776 210.815 84.736 210.943 84.656C211.071 84.568 211.187 84.464 211.291 84.344C211.363 84.256 211.419 84.204 211.459 84.188C211.507 84.164 211.579 84.152 211.675 84.152H213.163C213.235 84.152 213.295 84.176 213.343 84.224C213.399 84.264 213.427 84.32 213.427 84.392C213.427 84.6 213.307 84.84 213.067 85.112C212.835 85.384 212.495 85.62 212.047 85.82C211.599 86.02 211.071 86.12 210.463 86.12ZM211.471 82.244V82.22C211.471 81.828 211.379 81.52 211.195 81.296C211.019 81.064 210.771 80.948 210.451 80.948C210.139 80.948 209.891 81.064 209.707 81.296C209.531 81.52 209.443 81.828 209.443 82.22V82.244H211.471Z" fill="black"/>
<path d="M176.529 127.12C175.385 127.12 174.489 126.844 173.841 126.292C173.201 125.732 172.861 124.924 172.821 123.868C172.813 123.652 172.809 123.3 172.809 122.812C172.809 122.316 172.813 121.956 172.821 121.732C172.861 120.692 173.209 119.892 173.865 119.332C174.521 118.764 175.409 118.48 176.529 118.48C177.233 118.48 177.865 118.6 178.425 118.84C178.985 119.072 179.425 119.408 179.745 119.848C180.073 120.28 180.241 120.788 180.249 121.372V121.396C180.249 121.46 180.221 121.516 180.165 121.564C180.117 121.604 180.061 121.624 179.997 121.624H178.377C178.273 121.624 178.193 121.604 178.137 121.564C178.081 121.516 178.033 121.432 177.993 121.312C177.881 120.904 177.705 120.62 177.465 120.46C177.225 120.292 176.909 120.208 176.517 120.208C175.573 120.208 175.085 120.736 175.053 121.792C175.045 122.008 175.041 122.34 175.041 122.788C175.041 123.236 175.045 123.576 175.053 123.808C175.085 124.864 175.573 125.392 176.517 125.392C176.909 125.392 177.229 125.308 177.477 125.14C177.725 124.964 177.897 124.68 177.993 124.288C178.025 124.168 178.069 124.088 178.125 124.048C178.181 124 178.265 123.976 178.377 123.976H179.997C180.069 123.976 180.129 124 180.177 124.048C180.233 124.096 180.257 124.156 180.249 124.228C180.241 124.812 180.073 125.324 179.745 125.764C179.425 126.196 178.985 126.532 178.425 126.772C177.865 127.004 177.233 127.12 176.529 127.12ZM185.23 127.12C184.238 127.12 183.474 126.884 182.938 126.412C182.402 125.94 182.11 125.276 182.062 124.42C182.054 124.316 182.05 124.136 182.05 123.88C182.05 123.624 182.054 123.444 182.062 123.34C182.11 122.492 182.41 121.832 182.962 121.36C183.514 120.88 184.27 120.64 185.23 120.64C186.198 120.64 186.958 120.88 187.51 121.36C188.062 121.832 188.362 122.492 188.41 123.34C188.418 123.444 188.422 123.624 188.422 123.88C188.422 124.136 188.418 124.316 188.41 124.42C188.362 125.276 188.07 125.94 187.534 126.412C186.998 126.884 186.23 127.12 185.23 127.12ZM185.23 125.656C185.582 125.656 185.842 125.552 186.01 125.344C186.178 125.128 186.274 124.8 186.298 124.36C186.306 124.28 186.31 124.12 186.31 123.88C186.31 123.64 186.306 123.48 186.298 123.4C186.274 122.968 186.174 122.644 185.998 122.428C185.83 122.212 185.574 122.104 185.23 122.104C184.566 122.104 184.214 122.536 184.174 123.4L184.162 123.88L184.174 124.36C184.19 124.8 184.282 125.128 184.45 125.344C184.626 125.552 184.886 125.656 185.23 125.656ZM190.814 127C190.726 127 190.654 126.972 190.598 126.916C190.542 126.86 190.514 126.788 190.514 126.7V121.06C190.514 120.972 190.542 120.9 190.598 120.844C190.654 120.788 190.726 120.76 190.814 120.76H192.194C192.282 120.76 192.354 120.788 192.41 120.844C192.474 120.9 192.506 120.972 192.506 121.06V121.516C192.722 121.252 192.998 121.04 193.334 120.88C193.678 120.72 194.066 120.64 194.498 120.64C195.202 120.64 195.774 120.88 196.214 121.36C196.654 121.832 196.874 122.496 196.874 123.352V126.7C196.874 126.78 196.846 126.852 196.79 126.916C196.734 126.972 196.662 127 196.574 127H195.062C194.982 127 194.91 126.972 194.846 126.916C194.79 126.852 194.762 126.78 194.762 126.7V123.424C194.762 123.048 194.67 122.76 194.486 122.56C194.302 122.352 194.038 122.248 193.694 122.248C193.358 122.248 193.094 122.352 192.902 122.56C192.71 122.76 192.614 123.048 192.614 123.424V126.7C192.614 126.78 192.586 126.852 192.53 126.916C192.474 126.972 192.402 127 192.314 127H190.814ZM202.247 127C200.591 127 199.763 126.212 199.763 124.636V122.332H198.827C198.739 122.332 198.663 122.304 198.599 122.248C198.543 122.192 198.515 122.12 198.515 122.032V121.06C198.515 120.972 198.543 120.9 198.599 120.844C198.663 120.788 198.739 120.76 198.827 120.76H199.763V118.78C199.763 118.692 199.791 118.62 199.847 118.564C199.911 118.508 199.983 118.48 200.063 118.48H201.455C201.543 118.48 201.615 118.508 201.671 118.564C201.727 118.62 201.755 118.692 201.755 118.78V120.76H203.255C203.343 120.76 203.415 120.788 203.471 120.844C203.535 120.9 203.567 120.972 203.567 121.06V122.032C203.567 122.12 203.535 122.192 203.471 122.248C203.415 122.304 203.343 122.332 203.255 122.332H201.755V124.468C201.755 125.06 201.983 125.356 202.439 125.356H203.363C203.451 125.356 203.523 125.384 203.579 125.44C203.635 125.496 203.663 125.568 203.663 125.656V126.7C203.663 126.78 203.635 126.852 203.579 126.916C203.523 126.972 203.451 127 203.363 127H202.247ZM208.436 127.12C207.476 127.12 206.72 126.86 206.168 126.34C205.616 125.82 205.328 125.064 205.304 124.072V123.652C205.336 122.708 205.628 121.972 206.18 121.444C206.74 120.908 207.488 120.64 208.424 120.64C209.104 120.64 209.676 120.78 210.14 121.06C210.612 121.332 210.964 121.708 211.196 122.188C211.436 122.668 211.556 123.22 211.556 123.844V124.132C211.556 124.212 211.528 124.284 211.472 124.348C211.416 124.404 211.344 124.432 211.256 124.432H207.416V124.516C207.432 124.892 207.524 125.196 207.692 125.428C207.86 125.66 208.104 125.776 208.424 125.776C208.624 125.776 208.788 125.736 208.916 125.656C209.044 125.568 209.16 125.464 209.264 125.344C209.336 125.256 209.392 125.204 209.432 125.188C209.48 125.164 209.552 125.152 209.648 125.152H211.136C211.208 125.152 211.268 125.176 211.316 125.224C211.372 125.264 211.4 125.32 211.4 125.392C211.4 125.6 211.28 125.84 211.04 126.112C210.808 126.384 210.468 126.62 210.02 126.82C209.572 127.02 209.044 127.12 208.436 127.12ZM209.444 123.244V123.22C209.444 122.828 209.352 122.52 209.168 122.296C208.992 122.064 208.744 121.948 208.424 121.948C208.112 121.948 207.864 122.064 207.68 122.296C207.504 122.52 207.416 122.828 207.416 123.22V123.244H209.444ZM213.881 127C213.793 127 213.721 126.972 213.665 126.916C213.609 126.86 213.581 126.788 213.581 126.7V121.06C213.581 120.972 213.609 120.9 213.665 120.844C213.721 120.788 213.793 120.76 213.881 120.76H215.261C215.349 120.76 215.421 120.788 215.477 120.844C215.541 120.9 215.573 120.972 215.573 121.06V121.516C215.789 121.252 216.065 121.04 216.401 120.88C216.745 120.72 217.133 120.64 217.565 120.64C218.269 120.64 218.841 120.88 219.281 121.36C219.721 121.832 219.941 122.496 219.941 123.352V126.7C219.941 126.78 219.913 126.852 219.857 126.916C219.801 126.972 219.729 127 219.641 127H218.129C218.049 127 217.977 126.972 217.913 126.916C217.857 126.852 217.829 126.78 217.829 126.7V123.424C217.829 123.048 217.737 122.76 217.553 122.56C217.369 122.352 217.105 122.248 216.761 122.248C216.425 122.248 216.161 122.352 215.969 122.56C215.777 122.76 215.681 123.048 215.681 123.424V126.7C215.681 126.78 215.653 126.852 215.597 126.916C215.541 126.972 215.469 127 215.381 127H213.881ZM225.314 127C223.658 127 222.83 126.212 222.83 124.636V122.332H221.894C221.806 122.332 221.73 122.304 221.666 122.248C221.61 122.192 221.582 122.12 221.582 122.032V121.06C221.582 120.972 221.61 120.9 221.666 120.844C221.73 120.788 221.806 120.76 221.894 120.76H222.83V118.78C222.83 118.692 222.858 118.62 222.914 118.564C222.978 118.508 223.05 118.48 223.13 118.48H224.522C224.61 118.48 224.682 118.508 224.738 118.564C224.794 118.62 224.822 118.692 224.822 118.78V120.76H226.322C226.41 120.76 226.482 120.788 226.538 120.844C226.602 120.9 226.634 120.972 226.634 121.06V122.032C226.634 122.12 226.602 122.192 226.538 122.248C226.482 122.304 226.41 122.332 226.322 122.332H224.822V124.468C224.822 125.06 225.05 125.356 225.506 125.356H226.43C226.518 125.356 226.59 125.384 226.646 125.44C226.702 125.496 226.73 125.568 226.73 125.656V126.7C226.73 126.78 226.702 126.852 226.646 126.916C226.59 126.972 226.518 127 226.43 127H225.314ZM232.51 127C232.43 127 232.358 126.972 232.294 126.916C232.238 126.852 232.21 126.78 232.21 126.7V118.9C232.21 118.812 232.238 118.74 232.294 118.684C232.358 118.628 232.43 118.6 232.51 118.6H238.114C238.202 118.6 238.274 118.628 238.33 118.684C238.386 118.74 238.414 118.812 238.414 118.9V120.028C238.414 120.108 238.386 120.18 238.33 120.244C238.274 120.3 238.202 120.328 238.114 120.328H234.286V121.948H237.85C237.938 121.948 238.01 121.98 238.066 122.044C238.122 122.1 238.15 122.172 238.15 122.26V123.304C238.15 123.384 238.122 123.456 238.066 123.52C238.01 123.576 237.938 123.604 237.85 123.604H234.286V125.272H238.21C238.298 125.272 238.37 125.3 238.426 125.356C238.482 125.412 238.51 125.484 238.51 125.572V126.7C238.51 126.78 238.482 126.852 238.426 126.916C238.37 126.972 238.298 127 238.21 127H232.51ZM242.935 127.12C242.151 127.12 241.539 126.876 241.099 126.388C240.667 125.892 240.431 125.196 240.391 124.3L240.379 123.88L240.391 123.448C240.423 122.584 240.659 121.9 241.099 121.396C241.547 120.892 242.159 120.64 242.935 120.64C243.663 120.64 244.251 120.876 244.699 121.348V118.78C244.699 118.692 244.727 118.62 244.783 118.564C244.839 118.508 244.911 118.48 244.999 118.48H246.463C246.551 118.48 246.623 118.508 246.679 118.564C246.735 118.62 246.763 118.692 246.763 118.78V126.7C246.763 126.78 246.735 126.852 246.679 126.916C246.623 126.972 246.551 127 246.463 127H245.107C245.027 127 244.955 126.972 244.891 126.916C244.835 126.852 244.807 126.78 244.807 126.7V126.316C244.367 126.852 243.743 127.12 242.935 127.12ZM243.595 125.512C243.955 125.512 244.223 125.4 244.399 125.176C244.575 124.944 244.675 124.648 244.699 124.288C244.707 124.184 244.711 124.032 244.711 123.832C244.711 123.64 244.707 123.492 244.699 123.388C244.683 123.06 244.583 122.788 244.399 122.572C244.215 122.356 243.947 122.248 243.595 122.248C243.219 122.248 242.947 122.36 242.779 122.584C242.619 122.808 242.527 123.116 242.503 123.508C242.495 123.588 242.491 123.712 242.491 123.88C242.491 124.048 242.495 124.172 242.503 124.252C242.527 124.644 242.619 124.952 242.779 125.176C242.947 125.4 243.219 125.512 243.595 125.512ZM252.138 129.64C251.378 129.64 250.762 129.516 250.29 129.268C249.818 129.02 249.478 128.736 249.27 128.416C249.07 128.096 248.97 127.828 248.97 127.612C248.97 127.54 249.002 127.476 249.066 127.42C249.13 127.364 249.202 127.336 249.282 127.336H250.806C250.886 127.336 250.946 127.352 250.986 127.384C251.034 127.424 251.078 127.488 251.118 127.576C251.198 127.76 251.306 127.904 251.442 128.008C251.578 128.12 251.79 128.176 252.078 128.176C252.446 128.176 252.718 128.084 252.894 127.9C253.07 127.724 253.158 127.424 253.158 127V126.196C252.75 126.644 252.166 126.868 251.406 126.868C250.598 126.868 249.978 126.632 249.546 126.16C249.122 125.68 248.89 124.988 248.85 124.084L248.838 123.76C248.838 122.792 249.054 122.032 249.486 121.48C249.918 120.92 250.558 120.64 251.406 120.64C251.814 120.64 252.174 120.72 252.486 120.88C252.798 121.032 253.062 121.24 253.278 121.504V121.06C253.278 120.972 253.306 120.9 253.362 120.844C253.426 120.788 253.498 120.76 253.578 120.76H254.958C255.046 120.76 255.118 120.792 255.174 120.856C255.238 120.912 255.27 120.98 255.27 121.06V126.832C255.27 127.744 254.998 128.44 254.454 128.92C253.91 129.4 253.138 129.64 252.138 129.64ZM252.054 125.308C252.414 125.308 252.682 125.2 252.858 124.984C253.034 124.76 253.134 124.48 253.158 124.144C253.166 124.088 253.17 123.964 253.17 123.772C253.17 123.588 253.166 123.468 253.158 123.412C253.142 123.076 253.042 122.8 252.858 122.584C252.682 122.36 252.414 122.248 252.054 122.248C251.678 122.248 251.406 122.36 251.238 122.584C251.07 122.808 250.978 123.116 250.962 123.508L250.95 123.772C250.95 124.244 251.03 124.62 251.19 124.9C251.35 125.172 251.638 125.308 252.054 125.308ZM260.463 127.12C259.503 127.12 258.747 126.86 258.195 126.34C257.643 125.82 257.355 125.064 257.331 124.072V123.652C257.363 122.708 257.655 121.972 258.207 121.444C258.767 120.908 259.515 120.64 260.451 120.64C261.131 120.64 261.703 120.78 262.167 121.06C262.639 121.332 262.991 121.708 263.223 122.188C263.463 122.668 263.583 123.22 263.583 123.844V124.132C263.583 124.212 263.555 124.284 263.499 124.348C263.443 124.404 263.371 124.432 263.283 124.432H259.443V124.516C259.459 124.892 259.551 125.196 259.719 125.428C259.887 125.66 260.131 125.776 260.451 125.776C260.651 125.776 260.815 125.736 260.943 125.656C261.071 125.568 261.187 125.464 261.291 125.344C261.363 125.256 261.419 125.204 261.459 125.188C261.507 125.164 261.579 125.152 261.675 125.152H263.163C263.235 125.152 263.295 125.176 263.343 125.224C263.399 125.264 263.427 125.32 263.427 125.392C263.427 125.6 263.307 125.84 263.067 126.112C262.835 126.384 262.495 126.62 262.047 126.82C261.599 127.02 261.071 127.12 260.463 127.12ZM261.471 123.244V123.22C261.471 122.828 261.379 122.52 261.195 122.296C261.019 122.064 260.771 121.948 260.451 121.948C260.139 121.948 259.891 122.064 259.707 122.296C259.531 122.52 259.443 122.828 259.443 123.22V123.244H261.471Z" fill="black"/>
<rect x="172.5" y="131.5" width="230" height="154" fill="#EB5757" stroke="#EB5757"/>
<rect x="1" y="1" width="571" height="425" stroke="black" stroke-width="2"/>
</svg>
